<?xml version="1.0" standalone="no"?>
<!DOCTYPE svg PUBLIC "-//W3C//DTD SVG 20010904//EN"
 "http://www.w3.org/TR/2001/REC-SVG-20010904/DTD/svg10.dtd">
<svg version="1.0" xmlns="http://www.w3.org/2000/svg"
 width="260.000000pt" height="260.000000pt" viewBox="0 0 260.000000 260.000000"
 preserveAspectRatio="xMidYMid meet">
<metadata>
Created by potrace 1.11, written by Peter Selinger 2001-2013
</metadata>
<g transform="translate(0.000000,260.000000) scale(0.100000,-0.100000)"
fill="#000000" stroke="none">
<path d="M736 1903 c4 -44 6 -45 56 -58 45 -11 74 -42 83 -90 7 -39 7 -951 0
-990 -3 -16 -8 -37 -10 -45 -7 -22 -58 -50 -89 -50 -29 0 -35 -8 -38 -60 -2
-25 1 -34 10 -32 13 2 424 4 439 1 28 -5 34 2 28 37 -7 49 -12 54 -45 54 -37
0 -78 36 -89 77 -5 18 -10 135 -10 260 l-1 228 82 -85 c46 -47 101 -107 123
-134 22 -27 45 -54 50 -60 6 -6 24 -29 40 -51 17 -22 32 -42 35 -45 16 -16
104 -136 150 -207 l55 -82 55 4 c30 2 101 5 158 6 56 1 104 4 106 8 2 3 6 21
8 40 l3 35 -65 16 c-36 8 -84 28 -106 44 -22 16 -96 99 -164 185 -164 204
-265 325 -318 379 -24 25 -39 49 -35 55 4 7 39 46 78 87 233 247 315 329 365
367 30 23 103 53 130 53 23 0 28 8 35 53 l6 35 -203 0 c-125 0 -205 -3 -209
-10 -12 -19 6 -73 26 -77 53 -9 59 -49 16 -107 -27 -37 -113 -130 -324 -348
l-97 -101 1 232 c1 194 4 237 18 265 18 37 52 58 94 58 19 0 27 5 28 18 0 9 3
29 5 43 l4 27 -244 0 -244 0 4 -35z"/>
</g>
</svg>
